<?xml version="1.0"?>
<svg xmlns="http://www.w3.org/2000/svg" xmlns:xlink="http://www.w3.org/1999/xlink" xmlns:svgjs="http://svgjs.com/svgjs" version="1.1" width="512" height="512" x="0" y="0" viewBox="0 0 368 368" style="enable-background:new 0 0 512 512" xml:space="preserve"><g><path xmlns="http://www.w3.org/2000/svg" d="m328 0h-288c-22.054688 0-40 17.945312-40 40v288c0 22.054688 17.945312 40 40 40h288c22.054688 0 40-17.945312 40-40v-288c0-22.054688-17.945312-40-40-40zm24 328c0 13.230469-10.769531 24-24 24h-288c-13.230469 0-24-10.769531-24-24v-288c0-13.230469 10.769531-24 24-24h288c13.230469 0 24 10.769531 24 24zm0 0" fill="#fdfdfd" data-original="#000000" style=""/><path xmlns="http://www.w3.org/2000/svg" d="m248 224h-88v-32h56c22.054688 0 40-17.945312 40-40s-17.945312-40-40-40h-56v-8c0-22.054688-17.945312-40-40-40s-40 17.945312-40 40v128c0 39.703125 32.296875 72 72 72h96c22.054688 0 40-17.945312 40-40s-17.945312-40-40-40zm0 64h-96c-30.871094 0-56-25.128906-56-56v-128c0-13.230469 10.769531-24 24-24s24 10.769531 24 24v16c0 4.425781 3.574219 8 8 8h64c13.230469 0 24 10.769531 24 24s-10.769531 24-24 24h-64c-4.425781 0-8 3.574219-8 8v48c0 4.425781 3.574219 8 8 8h96c13.230469 0 24 10.769531 24 24s-10.769531 24-24 24zm0 0" fill="#fdfdfd" data-original="#000000" style=""/></g></svg>
