<svg id="analytics" xmlns="http://www.w3.org/2000/svg" width="99.792" height="100" viewBox="0 0 99.792 100">
  <g id="Grupo_56" data-name="Grupo 56" transform="translate(27.923)">
    <g id="Grupo_55" data-name="Grupo 55">
      <path id="Caminho_10" data-name="Caminho 10" d="M173.289,0a35.935,35.935,0,1,0,35.935,35.935A35.9,35.9,0,0,0,173.289,0Zm0,67.642A31.707,31.707,0,1,1,205,35.935,31.664,31.664,0,0,1,173.289,67.642Z" transform="translate(-137.354)" fill="#f9faee"/>
    </g>
  </g>
  <g id="Grupo_58" data-name="Grupo 58" transform="translate(27.04 58.184)">
    <g id="Grupo_57" data-name="Grupo 57" transform="translate(0 0)">
      <rect id="Retângulo_14" data-name="Retângulo 14" width="18.812" height="4.228" transform="matrix(0.685, -0.729, 0.729, 0.685, 0, 13.709)" fill="#f9faee"/>
    </g>
  </g>
  <g id="Grupo_60" data-name="Grupo 60" transform="translate(0 66.854)">
    <g id="Grupo_59" data-name="Grupo 59">
      <path id="Caminho_11" data-name="Caminho 11" d="M31.354,322.62l-1.48-1.48c-2.959-2.959-6.342-3.8-8.244-1.9L1.549,338.685a3.56,3.56,0,0,0-1.057,2.536c0,1.691,1.057,3.8,2.748,5.707l1.48,1.48c1.9,1.9,4.016,2.959,5.707,2.959a3.348,3.348,0,0,0,2.536-1.057l20.081-19.447a3.56,3.56,0,0,0,1.057-2.536C34.1,326.636,33.045,324.522,31.354,322.62ZM10.216,347.14a8.347,8.347,0,0,1-2.536-1.691l-1.48-1.48a4.6,4.6,0,0,1-1.48-2.536l19.447-19.024A8.349,8.349,0,0,1,26.7,324.1l1.48,1.48a4.6,4.6,0,0,1,1.48,2.536Z" transform="translate(-0.492 -318.222)" fill="#f9faee"/>
    </g>
  </g>
  <g id="Grupo_62" data-name="Grupo 62" transform="translate(35.966 30.977)">
    <g id="Grupo_61" data-name="Grupo 61">
      <path id="Caminho_12" data-name="Caminho 12" d="M177.172,146.708a6.341,6.341,0,1,0,6.341,6.341A6.228,6.228,0,0,0,177.172,146.708Zm0,8.455a2.118,2.118,0,0,1-2.114-2.114,2.114,2.114,0,1,1,2.114,2.114Z" transform="translate(-170.83 -146.708)" fill="#f9faee"/>
    </g>
  </g>
  <g id="Grupo_64" data-name="Grupo 64" transform="translate(49.896 12.894)">
    <g id="Grupo_63" data-name="Grupo 63">
      <path id="Caminho_13" data-name="Caminho 13" d="M243.142,60.062a6.341,6.341,0,0,0,0,12.683,6.359,6.359,0,0,0,6.341-6.341A6.228,6.228,0,0,0,243.142,60.062Zm0,8.455a2.118,2.118,0,0,1-2.114-2.114,2,2,0,0,1,2.114-2.114,2.114,2.114,0,1,1,0,4.228Z" transform="translate(-236.801 -60.062)" fill="#f9faee"/>
    </g>
  </g>
  <g id="Grupo_66" data-name="Grupo 66" transform="translate(64.032 44.282)">
    <g id="Grupo_65" data-name="Grupo 65">
      <path id="Caminho_14" data-name="Caminho 14" d="M310.1,209.723a6.341,6.341,0,1,0,6.341,6.341A6.228,6.228,0,0,0,310.1,209.723Zm0,8.455a2.118,2.118,0,0,1-2.114-2.114,2.114,2.114,0,1,1,4.228,0A2.118,2.118,0,0,1,310.1,218.178Z" transform="translate(-303.754 -209.723)" fill="#f9faee"/>
    </g>
  </g>
  <g id="Grupo_68" data-name="Grupo 68" transform="translate(80.345 22.869)">
    <g id="Grupo_67" data-name="Grupo 67">
      <path id="Caminho_15" data-name="Caminho 15" d="M387.88,108.308a6.341,6.341,0,0,0,0,12.683,6.359,6.359,0,0,0,6.341-6.341A6.228,6.228,0,0,0,387.88,108.308Zm0,8.455a2.118,2.118,0,0,1-2.114-2.114,2,2,0,0,1,2.114-2.114,2.114,2.114,0,1,1,0,4.228Z" transform="translate(-381.539 -108.308)" fill="#f9faee"/>
    </g>
  </g>
  <g id="Grupo_70" data-name="Grupo 70" transform="translate(43.284 21.2)">
    <g id="Grupo_69" data-name="Grupo 69" transform="translate(0 0)">
      <rect id="Retângulo_15" data-name="Retângulo 15" width="13.528" height="4.228" transform="matrix(0.609, -0.793, 0.793, 0.609, 0, 10.726)" fill="#f9faee"/>
    </g>
  </g>
  <g id="Grupo_72" data-name="Grupo 72" transform="translate(55.656 22.72)">
    <g id="Grupo_71" data-name="Grupo 71" transform="translate(0 0)">
      <rect id="Retângulo_16" data-name="Retângulo 16" width="4.228" height="25.788" transform="matrix(0.908, -0.42, 0.42, 0.908, 0, 1.774)" fill="#f9faee"/>
    </g>
  </g>
  <g id="Grupo_74" data-name="Grupo 74" transform="translate(70.656 30.806)">
    <g id="Grupo_73" data-name="Grupo 73" transform="translate(0 0)">
      <rect id="Retângulo_17" data-name="Retângulo 17" width="18.813" height="4.228" transform="translate(0 15.124) rotate(-53.503)" fill="#f9faee"/>
    </g>
  </g>
</svg>
