<svg xmlns="http://www.w3.org/2000/svg" width="100" height="100" viewBox="0 0 100 100">
  <g id="crane" transform="translate(-210 130)">
    <g id="Grupo_78" data-name="Grupo 78" transform="translate(210 -130)">
      <path id="Caminho_16" data-name="Caminho 16" d="M83.333,50A1.667,1.667,0,0,0,85,48.333V25H98.333A1.667,1.667,0,0,0,100,23.333V16.666a1.565,1.565,0,0,0-.037-.183,1.624,1.624,0,0,0-.072-.355A1.7,1.7,0,0,0,98.85,15.1a1.416,1.416,0,0,0-.137-.06L35.38.04A1.663,1.663,0,0,0,35,0H28.333a1.654,1.654,0,0,0-.575.117c-.045.017-.087.032-.13.052s-.077.025-.113.045l-26.667,15a1.609,1.609,0,0,0-.23.187,1.632,1.632,0,0,0-.157.127,1.667,1.667,0,0,0-.333.49v.02a1.658,1.658,0,0,0-.117.575c0,.02-.012.037-.012.057v6.667A1.667,1.667,0,0,0,1.667,25H25V55.976l-6.178,6.178a1.666,1.666,0,0,0-.488,1.178V90H15v10H48.333V90H45V63.333a1.666,1.666,0,0,0-.488-1.178l-6.178-6.178V25H71.667V48.333A1.667,1.667,0,0,0,73.333,50h3.333v5a1.667,1.667,0,0,0,1.667,1.667A3.333,3.333,0,1,1,75,60V58.333H71.667V60a6.645,6.645,0,0,0,3.487,5.823l-12.51,12.51h-4.31A1.667,1.667,0,0,0,56.667,80V95a1.667,1.667,0,0,0,1.667,1.667h40A1.667,1.667,0,0,0,100,95V80a1.667,1.667,0,0,0-1.667-1.667h-4.31l-12.51-12.51A6.64,6.64,0,0,0,80,53.543V50ZM85,18.333H96.667v3.333H85ZM96.667,81.666V93.333H60V81.666ZM89.31,78.333H67.357L78.333,67.357ZM81.667,40H75V25h6.667Zm0-18.333H75V18.333h6.667ZM30,3.333h3.333V15H30Zm-1.667,15H35v2.643l-.69.69H28.333ZM35,25.69V37.643l-5.977-5.977ZM28.333,25h2.643l-2.643,2.643Zm0,10.69,5.977,5.976-5.977,5.977ZM35,45.69V57.643l-5.977-5.977ZM28.333,56.666V55.69l5.977,5.977-5.977,5.977ZM35,65.69V77.643l-5.977-5.977Zm-6.667,10,5.977,5.976-5.977,5.977ZM35,85.69V90H30.69ZM26.667,4.516V15H8.028ZM3.333,21.666V18.333H25v3.333ZM21.667,64.023,25,60.69V90H21.667ZM45,93.333v3.333H18.333V93.333Zm-3.333-29.31V90H38.333V60.69Zm30-42.357H38.333V18.333H71.667ZM36.667,15V3.773L84.065,15h-47.4ZM75,46.666V43.333h6.667v3.333Z" transform="translate(0 0)" fill="#f9faee"/>
    </g>
  </g>
</svg>
