<svg id="excavator" xmlns="http://www.w3.org/2000/svg" width="100.953" height="100.953" viewBox="0 0 100.953 100.953">
  <g id="Grupo_81" data-name="Grupo 81">
    <g id="Grupo_80" data-name="Grupo 80">
      <g id="Grupo_79" data-name="Grupo 79">
        <path id="Caminho_18" data-name="Caminho 18" d="M97.7,81.594V66.759a4.878,4.878,0,0,0-3.257-4.585V60.246a4.891,4.891,0,0,0-4.885-4.885H71.344A4.878,4.878,0,0,0,66.759,52.1V31.73A11.417,11.417,0,0,0,61,21.827L29.791,4.045A8.113,8.113,0,0,0,14.659,8.088h0L13.073,55.521A8.109,8.109,0,0,0,8.024,68.2L3.392,73.6a14.087,14.087,0,0,0,.734,19.129l4.886,4.886a11.325,11.325,0,0,0,8.06,3.34H34.194V97.7H30.937V88.773L25.344,84.3a8.087,8.087,0,0,1-3.006-5.458L21.171,68.334a8.015,8.015,0,0,0-1.363-11.08l7.57-42.39a8.417,8.417,0,0,0,.8-.663L44.887,30.906a6.427,6.427,0,0,0-.923,3.287,6.508,6.508,0,0,0,4.885,6.282V52.1h-.586a4.9,4.9,0,0,0-4.79,3.926L39.111,77.838l-.023,3.747a11.386,11.386,0,0,0,8.132,19.368H89.555A11.386,11.386,0,0,0,97.7,81.594ZM14.654,58.618A4.885,4.885,0,1,1,9.77,63.5,4.891,4.891,0,0,1,14.654,58.618ZM23.31,86.842l4.37,3.494v.847H24.424V94.44h3.257V97.7H17.072a8.091,8.091,0,0,1-5.758-2.385L6.428,90.424a10.831,10.831,0,0,1-.563-14.708l4.544-5.3a7.906,7.906,0,0,0,7.762.4L19.1,79.2A11.321,11.321,0,0,0,23.31,86.842ZM16.783,55.679c-.153-.042-.295-.107-.449-.14l1.369-41.1A8.052,8.052,0,0,0,22.8,16.283a7.847,7.847,0,0,0,1.04-.106ZM22.8,13.026a4.885,4.885,0,1,1,4.885-4.885A4.891,4.891,0,0,1,22.8,13.026Zm48.848,52.1H74.9V61.874H71.644V58.618H89.555a1.63,1.63,0,0,1,1.628,1.628v1.628H78.157v3.257H92.811a1.63,1.63,0,0,1,1.628,1.628V79.272a11.32,11.32,0,0,0-4.885-1.115H71.644ZM30.154,11.569a8.081,8.081,0,0,0,.754-3.139L59.391,24.657A8.155,8.155,0,0,1,63.5,31.73V52.1H52.1V40.476a6.5,6.5,0,0,0-1.628-12.795,6.427,6.427,0,0,0-3.287.923ZM47.22,34.194a3.257,3.257,0,1,1,3.257,3.257A3.26,3.26,0,0,1,47.22,34.194ZM42.335,78.318l4.33-21.648a1.633,1.633,0,0,1,1.6-1.309h18.5a1.63,1.63,0,0,1,1.628,1.628V78.157H47.22a11.32,11.32,0,0,0-4.885,1.115ZM89.555,97.7H47.22a8.141,8.141,0,0,1,0-16.283H89.555a8.141,8.141,0,0,1,0,16.283Z" fill="#fff"/>
        <path id="Caminho_19" data-name="Caminho 19" d="M253.592,408a6.473,6.473,0,0,0-4.885,2.25,6.427,6.427,0,0,0-9.77,0,6.427,6.427,0,0,0-9.77,0,6.427,6.427,0,0,0-9.77,0,6.513,6.513,0,1,0,0,8.526,6.427,6.427,0,0,0,9.77,0,6.427,6.427,0,0,0,9.77,0,6.427,6.427,0,0,0,9.77,0A6.5,6.5,0,1,0,253.592,408Zm-39.078,9.77a3.257,3.257,0,1,1,3.257-3.257A3.26,3.26,0,0,1,214.513,417.77Zm9.77,0a3.257,3.257,0,1,1,3.257-3.257A3.26,3.26,0,0,1,224.283,417.77Zm9.77,0a3.257,3.257,0,1,1,3.257-3.257A3.26,3.26,0,0,1,234.052,417.77Zm9.77,0a3.257,3.257,0,1,1,3.257-3.257A3.26,3.26,0,0,1,243.822,417.77Zm9.77,0a3.257,3.257,0,1,1,3.257-3.257A3.26,3.26,0,0,1,253.592,417.77Z" transform="translate(-165.665 -324.958)" fill="#fff"/>
        <path id="Caminho_20" data-name="Caminho 20" d="M251.539,288H233.921l-1.89,9.45L232,301.026h19.539Zm-3.257,9.77H235.289l1.3-6.513h11.691Z" transform="translate(-184.78 -229.382)" fill="#fff"/>
        <rect id="Ret창ngulo_18" data-name="Ret창ngulo 18" width="6" height="3" transform="translate(85 69)" fill="#fff"/>
        <rect id="Ret창ngulo_19" data-name="Ret창ngulo 19" width="6" height="3" transform="translate(75 69)" fill="#fff"/>
      </g>
    </g>
  </g>
</svg>
